<svg width="500" height="500" xmlns="http://www.w3.org/2000/svg" xmlns:xlink="http://www.w3.org/1999/xlink" overflow="hidden"><defs><clipPath id="clip0"><rect x="0" y="0" width="500" height="500"/></clipPath><clipPath id="clip1"><rect x="50" y="50" width="400" height="400"/></clipPath><clipPath id="clip2"><rect x="50" y="50" width="401" height="401"/></clipPath><clipPath id="clip3"><rect x="50" y="50" width="401" height="401"/></clipPath><clipPath id="clip4"><rect x="45" y="45" width="410" height="410"/></clipPath></defs><g clip-path="url(#clip0)"><rect x="0" y="0" width="500" height="500" fill="#FFFFFF"/><g clip-path="url(#clip1)"><g clip-path="url(#clip2)"><g clip-path="url(#clip3)"><g clip-path="url(#clip4)"><path d="M127.852 114.447C126.12 116.004 123.836 116.81 121.513 116.683 119.19 116.563 117.002 115.525 115.445 113.792 113.888 112.06 113.082 109.776 113.202 107.453 113.329 105.13 114.367 102.942 116.1 101.385 134.423 84.8982 155.637 71.9401 178.679 63.1737 201.529 54.4631 225.784 49.992 250.24 49.992 267.389 49.984 284.467 52.2036 301.042 56.5788 318.184 61.1138 334.647 67.9162 349.992 76.7864 365.641 85.8084 379.996 96.9062 392.667 109.784 404.906 122.24 415.461 136.259 424.044 151.477 432.507 166.479 439.006 182.503 443.381 199.166 447.764 215.828 449.984 232.986 449.984 250.216 449.992 275.573 445.138 300.707 435.701 324.252 434.838 326.407 433.146 328.14 431.006 329.058 428.866 329.968 426.447 330 424.283 329.13 422.12 328.267 420.387 326.575 419.477 324.435 418.559 322.295 418.535 319.876 419.397 317.713 428.004 296.251 432.427 273.337 432.419 250.216 432.419 234.495 430.391 218.838 426.391 203.629 422.399 188.427 416.467 173.792 408.747 160.108 400.922 146.232 391.301 133.457 380.14 122.096 368.579 110.351 355.485 100.228 341.21 91.996 327.206 83.9002 312.188 77.7046 296.555 73.5609 281.441 69.5689 265.872 67.5489 250.24 67.5569 227.916 67.5569 205.784 71.6367 184.93 79.5888 163.916 87.5888 144.563 99.4052 127.852 114.447Z" fill="#FF914D"/><path d="M399.741 354.176C401.074 352.267 403.11 350.966 405.401 350.551 407.693 350.144 410.056 350.663 411.972 351.996 413.88 353.329 415.182 355.365 415.589 357.657 416.004 359.948 415.485 362.311 414.152 364.22 396.012 390.232 371.972 411.589 344.004 426.535 329.832 434.104 314.79 439.924 299.214 443.876 283.126 447.94 266.599 449.992 250 449.984 236.467 449.992 222.974 448.627 209.721 445.92 196.85 443.285 184.267 439.373 172.172 434.255 148.419 424.188 126.83 409.625 108.595 391.381 90.3513 373.146 75.7884 351.557 65.7206 327.804 60.6028 315.709 56.6906 303.126 54.0559 290.255 51.3493 277.002 49.984 263.509 49.992 249.976 49.976 229.345 53.1537 208.826 59.4212 189.17 65.489 170.184 74.3673 152.212 85.7605 135.86 87.0858 133.952 89.1297 132.651 91.4212 132.236 93.7126 131.828 96.0759 132.347 97.984 133.681 99.8922 135.006 101.202 137.05 101.609 139.341 102.016 141.633 101.497 143.996 100.172 145.904 89.7844 160.81 81.6886 177.194 76.1557 194.503 70.4391 212.443 67.5409 231.15 67.5569 249.976 67.5489 262.319 68.7944 274.639 71.2615 286.735 73.6647 298.463 77.2335 309.928 81.8962 320.954 91.0858 342.631 104.363 362.319 121.018 378.958 137.657 395.613 157.353 408.89 179.022 418.08 190.048 422.751 201.513 426.311 213.242 428.715 225.337 431.182 237.657 432.427 250 432.419 265.146 432.427 280.228 430.559 294.902 426.846 309.098 423.246 322.806 417.936 335.725 411.038 361.25 397.401 383.19 377.912 399.741 354.176Z" fill="#FF914D"/><path d="M241.218 111.876C241.218 109.545 242.144 107.309 243.788 105.665 245.433 104.02 247.669 103.094 250 103.094 252.331 103.094 254.567 104.02 256.212 105.665 257.856 107.309 258.782 109.545 258.782 111.876L258.782 263.038 166.591 316.675C164.579 317.84 162.184 318.168 159.932 317.569 157.681 316.978 155.757 315.509 154.583 313.497 153.417 311.485 153.09 309.09 153.689 306.838 154.279 304.587 155.749 302.663 157.76 301.489L241.218 252.93 241.218 111.876Z" fill="#FF914D"/></g></g></g></g><text fill="#FF914D" font-family="5,5_MSFontService,sans-serif" font-weight="700" font-size="51" transform="translate(228.385 382)">hou</text><text fill="#FF914D" font-family="5,5_MSFontService,sans-serif" font-weight="700" font-size="51" transform="translate(261.219 453)">r</text><text fill="#FF914D" font-family="5,5_MSFontService,sans-serif" font-weight="700" font-size="73" transform="translate(169.227 382)">2</text></g></svg>