<?xml version="1.0" encoding="UTF-8" standalone="no" ?>
<!DOCTYPE svg PUBLIC "-//W3C//DTD SVG 1.1//EN" "http://www.w3.org/Graphics/SVG/1.1/DTD/svg11.dtd">
<svg xmlns="http://www.w3.org/2000/svg" xmlns:xlink="http://www.w3.org/1999/xlink" version="1.1" width="640" height="480" viewBox="0 0 640 480" xml:space="preserve">
<desc>Created with Fabric.js 3.6.3</desc>
<defs>
</defs>
<g transform="matrix(1 0 0 1 339 235)"  >
<g style=""   >
		<g transform="matrix(1 0 0 1 -59.63 -111.95)" id="_x32_"  >
<path style="stroke: none; stroke-width: 1; stroke-dasharray: none; stroke-linecap: butt; stroke-dashoffset: 0; stroke-linejoin: miter; stroke-miterlimit: 4; fill: rgb(75,75,75); fill-rule: nonzero; opacity: 1;"  transform=" translate(-196.37, -144.05)" d="M 289.375 40.703 c -40.906 0 -76.25 23.781 -93 58.266 c -16.75 -34.484 -52.109 -58.266 -93.016 -58.266 C 46.266 40.703 0 86.969 0 144.063 c 0 57.078 46.266 103.328 103.359 103.328 h 186.016 c 57.094 0 103.359 -46.25 103.359 -103.328 C 392.734 86.969 346.469 40.703 289.375 40.703 z M 103.359 183.141 c -21.594 0 -39.094 -17.516 -39.094 -39.078 c 0 -21.594 17.5 -39.094 39.094 -39.094 c 21.563 0 39.063 17.5 39.063 39.094 C 142.422 165.625 124.922 183.141 103.359 183.141 z M 289.375 183.141 c -21.578 0 -39.063 -17.516 -39.063 -39.078 c 0 -21.594 17.484 -39.094 39.063 -39.094 c 21.594 0 39.094 17.5 39.094 39.094 C 328.469 165.625 310.969 183.141 289.375 183.141 z" stroke-linecap="round" />
</g>
		<g transform="matrix(1 0 0 1 -63.02 115.15)" id="_x32_"  >
<path style="stroke: none; stroke-width: 1; stroke-dasharray: none; stroke-linecap: butt; stroke-dashoffset: 0; stroke-linejoin: miter; stroke-miterlimit: 4; fill: rgb(75,75,75); fill-rule: nonzero; opacity: 1;"  transform=" translate(-192.98, -371.15)" d="M 332.125 271 H 53.828 c -11.094 0 -20.063 8.969 -20.063 20.047 v 160.188 c 0 11.078 8.969 20.063 20.063 20.063 h 278.297 c 11.094 0 20.063 -8.984 20.063 -20.063 V 291.047 C 352.188 279.969 343.219 271 332.125 271 z" stroke-linecap="round" />
</g>
		<g transform="matrix(1 0 0 1 187.01 114.05)" id="_x32_"  >
<path style="stroke: none; stroke-width: 1; stroke-dasharray: none; stroke-linecap: butt; stroke-dashoffset: 0; stroke-linejoin: miter; stroke-miterlimit: 4; fill: rgb(75,75,75); fill-rule: nonzero; opacity: 1;"  transform=" translate(-443.01, -370.05)" d="M 504.344 306.688 c -4.844 -3.797 -11.172 -5.156 -17.156 -3.719 l -97.844 23.844 c -9 2.188 -15.328 10.25 -15.328 19.5 v 47.484 c 0 9.25 6.328 17.297 15.328 19.484 l 97.844 23.859 c 5.984 1.438 12.313 0.078 17.156 -3.719 c 4.828 -3.813 7.656 -9.625 7.656 -15.781 v -95.188 C 512 316.313 509.172 310.5 504.344 306.688 z" stroke-linecap="round" />
</g>
</g>
</g>
<g transform="matrix(0.26 0 0 0.26 283.69 356.27)"  >
<path style="stroke: none; stroke-width: 1; stroke-dasharray: none; stroke-linecap: butt; stroke-dashoffset: 0; stroke-linejoin: miter; stroke-miterlimit: 4; fill: rgb(255,255,255); fill-rule: nonzero; opacity: 1;"  transform=" translate(-256, -256)" d="M 473.984 74.248 c -50.688 -50.703 -132.875 -50.703 -183.563 0 c -17.563 17.547 -29.031 38.891 -34.438 61.391 c -5.375 -22.5 -16.844 -43.844 -34.406 -61.391 c -50.688 -50.703 -132.875 -50.703 -183.563 0 c -50.688 50.688 -50.688 132.875 0 183.547 l 217.969 217.984 l 218 -217.984 C 524.672 207.123 524.672 124.936 473.984 74.248 z" stroke-linecap="round" />
</g>
</svg>